<svg xmlns="http://www.w3.org/2000/svg" width="301" height="299" baseProfile="tiny-ps" version="1.2" style="shape-rendering:geometricPrecision;text-rendering:geometricPrecision;image-rendering:optimizeQuality;fill-rule:evenodd;clip-rule:evenodd"><title>The Glitch Doctor Logo</title><path fill="#3d596d" d="M111.5 29.5a44.093 44.093 0 0 0-3-2c1.235-2.544 2.401-2.544 3.5 0 1.813-1.11 2.646-.442 2.5 2h-3Z" style="opacity:.286"/><path fill="#b34149" d="M158.5 44.5c.219 1.175-.114 2.175-1 3a15.686 15.686 0 0 0-4 2 269.14 269.14 0 0 0 3 13 19.051 19.051 0 0 0 1 6c-.442 1.239-1.109 2.239-2 3-.734 1.208-1.067 2.541-1 4-1.28 1.431-2.947 2.098-5 2v5a9.107 9.107 0 0 0 5-1c.929 1.189 1.262 2.522 1 4 4.72-.275 5.054.559 1 2.5a19.588 19.588 0 0 0 2 3.5c-.131.876.202 1.543 1 2a27.007 27.007 0 0 1 10-2l2 13c-2.534-.241-4.2.759-5 3l1 8a51.569 51.569 0 0 0-7 1v5h4a8.43 8.43 0 0 1 .5-4 19.887 19.887 0 0 0 3.5 4c-1.189.929-2.522 1.262-4 1v4a78.995 78.995 0 0 0 12-3 18.513 18.513 0 0 1 4.5 4 35.925 35.925 0 0 0 9.5-3c.565 2.01 1.565 3.676 3 5l1-1c-2.467-1.786-2.3-3.452.5-5 1.563.602 1.396 1.435-.5 2.5a9.454 9.454 0 0 1 1.5 2.5l5-4c1.503.335 2.836.335 4 0-.263-1.451-.096-2.784.5-4l4 1c-1.311.758-1.811 1.758-1.5 3 1.011-.837 2.178-1.17 3.5-1 .122-4.338.455-4.672 1-1a21.028 21.028 0 0 0 7-2c3.313 5.705 1.647 8.705-5 9-.219 1.175.114 2.175 1 3 3.403-1.687 6.236-1.02 8.5 2a22.209 22.209 0 0 1 3.5-6l1 1c-2.743 3.106-2.076 5.106 2 6 .151-3.218.984-3.551 2.5-1 .261-3.416 1.761-6.083 4.5-8 .976 1.623.476 2.957-1.5 4-1.166 4.649.001 5.316 3.5 2l-1-2a10.756 10.756 0 0 0 2.5-3c1.011.837 2.178 1.17 3.5 1-.219 1.175.114 2.175 1 3 1.211-.774 1.211-1.607 0-2.5 1.937-.122 3.27-.955 4-2.5.667 0 1-.333 1-1s.333-1 1-1c2.441 2.77 3.774 6.103 4 10-.172.992.162 1.658 1 2v1c.157 2.844-1.176 4.511-4 5-9.315 2.326-18.648 4.659-28 7a15.784 15.784 0 0 1-5-3c-3.203.635-4.536 2.635-4 6a429.064 429.064 0 0 0-28 7 7.293 7.293 0 0 1-3-2 20.035 20.035 0 0 1-3 6c1.797 1.195 2.797 2.862 3 5-1.643.02-2.976-.647-4-2-.827 1.662-1.993 2.995-3.5 4a132.723 132.723 0 0 0 2.5 16c-.304.65-.637 1.317-1 2 .757 1.273 1.423 1.273 2 0 1.599.268 2.932-.066 4-1h3c.667 0 1-.333 1-1 .992.172 1.658-.162 2-1 .904.709 1.237 1.709 1 3-1.333.333-1.333.667 0 1v3c0 .667.333 1 1 1 .573 5.955 1.907 11.622 4 17v3c.271 1.88-.396 3.213-2 4-.617-.111-1.117-.444-1.5-1-1.11 1.537-2.61 2.203-4.5 2 1.56 4.295 2.227 8.629 2 13 3.57.409 7.236.409 11 0v3c0 .667.333 1 1 1v1c-.237 1.291.096 2.291 1 3 0 .667.333 1 1 1v8c-.966 2.625-1.966 2.625-3 0a3.647 3.647 0 0 1 1-1.5c-2.64-.839-4.973-.339-7 1.5 1.467.223 2.967.556 4.5 1 .456 1.244-.044 2.077-1.5 2.5a106.487 106.487 0 0 0-17 4.5 13.049 13.049 0 0 0-4-3l-2 1 3 2c-4.006 3.038-7.34 2.538-10-1.5-1.135-.749-2.135-.583-3 .5.825.886 1.825 1.219 3 1 .14 1.624-.527 2.79-2 3.5-2.626.995-5.293 1.328-8 1a14.748 14.748 0 0 0 3-4.5 3.647 3.647 0 0 1 1.5 1 28.931 28.931 0 0 1 1.5-4l-1-1-2 2c-1.333-1.333-2.667-1.333-4 0-1.981-.605-2.315-1.605-1-3a7.248 7.248 0 0 0-2-2.5 33.467 33.467 0 0 0 4-9.5c2.653-.785 3.32-2.285 2-4.5l2-1c-2.14-2.173-2.474-4.673-1-7.5h-6c.02-1.643-.647-2.976-2-4 .774-1.211 1.607-1.211 2.5 0l3-4c1.011.837 2.178 1.17 3.5 1v-3a4.934 4.934 0 0 1-3-.5 20.532 20.532 0 0 0-2.5-4.5c-2.618 1.238-5.285 1.238-8 0-.945.405-1.612 1.072-2 2a9.454 9.454 0 0 0-1.5-2.5c2.968-2.178 2.635-3.344-1-3.5a44.36 44.36 0 0 0-2-10l2-2c-1.697-.864-2.863-2.197-3.5-4a332.072 332.072 0 0 0-3.5-14c2.224-1.28 4.224-.947 6 1 2.052-2.296 3.052-4.963 3-8h3a4.934 4.934 0 0 0 .5 3c.667-1.667.667-3.333 0-5-5.248-.238-10.415.762-15.5 3-1.719-2.548-3.052-2.215-4 1-1.902-5.206-2.902-4.873-3 1h-3c.219-1.175-.114-2.175-1-3l-2 4-2-3-2 4c-2.404-4.258-4.071-3.925-5 1-1.967-1.182-3.3-.515-4 2-1.867-2.729-2.867-2.396-3 1-2.429-.085-4.429-1.085-6-3l-1 4-2-1c-1.329 3.195-2.995 3.528-5 1a10.756 10.756 0 0 1-3 2.5 236.853 236.853 0 0 0-15 4.5 55.466 55.466 0 0 0-11 3 167.504 167.504 0 0 1-2-6.5l1-.5c.929 1.189 1.262 2.522 1 4a177.535 177.535 0 0 0 18-4.5c.837-1.011 1.17-2.178 1-3.5h3a41.742 41.742 0 0 0-1-9c-2.012.514-4.012.68-6 .5-2.142-4.608-2.809-4.441-2 .5a10.777 10.777 0 0 1-6 2l-3-14-12 2c-.38-2.442.286-3.109 2-2l3-4.5c-.648-1.44-.98-2.94-1-4.5 2.805 1.876 4.805 1.21 6-2 3.11-.04 6.444-.54 10-1.5.958-1.147.625-2.147-1-3l3-1c-1.134-1.016-.8-1.683 1-2l-1-1c1.76-.965 2.094-2.132 1-3.5-4.338 1.004-7.004 3.671-8 8-2.336-1.573-2.336-2.906 0-4-.865-1.083-1.865-1.249-3-.5-.58 1.335-.913 2.502-1 3.5-2.051-.987-3.718-2.32-5-4 1.599.268 2.932-.066 4-1h2c.667 0 1-.333 1-1 1.599.268 2.932-.066 4-1 1.599.268 2.932-.066 4-1 1.599.268 2.932-.066 4-1 1.291.237 2.291-.096 3-1 0-.667.333-1 1-1 1 1.333 2 1.333 3 0 0-.667.333-1 1-1 1 1.333 2 1.333 3 0 1.599.268 2.932-.066 4-1 1.599.268 2.932-.066 4-1 1.599.268 2.932-.066 4-1 1.599.268 2.932-.066 4-1 1.599.268 2.932-.066 4-1 1.291.237 2.291-.096 3-1h3c1.278-.282 2.278-.949 3-2 .333 1.333.667 1.333 1 0 .802 1.452 1.302 3.118 1.5 5a26.585 26.585 0 0 0 3.5-2c-.825-.886-1.825-1.219-3-1 .328-1.891.995-3.391 2-4.5a83.575 83.575 0 0 0-3-12.5c4.677.485 6.844-1.515 6.5-6-1.796 1.267-3.629 1.267-5.5 0a4.457 4.457 0 0 0-1.5 2 29.898 29.898 0 0 1-2.5-6.5c.949-.617 1.782-.45 2.5.5.774-1.903.44-3.57-1-5-.667 1.333-1.333 1.333-2 0a924.528 924.528 0 0 0-7.5-29c.669-2.528 1.502-2.528 2.5 0 2.189-3.434 1.356-4.434-2.5-3a245.77 245.77 0 0 1-3-10.5 9.26 9.26 0 0 1 2-2.5c-2.838-1.012-4.171-3.012-4-6h2c.992.172 1.658-.162 2-1 1.291.237 2.291-.096 3-1a611.875 611.875 0 0 0 41-10 4.94 4.94 0 0 1 2.5 1c.996 4.316 1.83 8.65 2.5 13Zm-48 143c-.283.789-.783 1.456-1.5 2-.528-1.316-.028-1.983 1.5-2Z" style="opacity:1"/><path fill="#1c3d4f" d="M256.5 147.5c-.664-1.148-.831-2.481-.5-4-1.147-.958-2.147-.625-3 1a2.428 2.428 0 0 1-.5-2c2.824-.489 4.157-2.156 4-5 1.333-.333 1.333-.667 0-1-.838-.342-1.172-1.008-1-2 .624-.417.957-1.084 1-2l-1.5-6c-.71-1.473-1.876-2.14-3.5-2-.667 0-1 .333-1 1-1.599-.268-2.932.066-4 1h-2c-.997.03-1.664-.47-2-1.5a61.14 61.14 0 0 0-3-11.5c2.912-1.74 5.912-3.073 9-4 .876.131 1.543-.202 2-1a143.868 143.868 0 0 0-5-16 10569.197 10569.197 0 0 0-69.5 19A1650.24 1650.24 0 0 1 163.5 64a73.472 73.472 0 0 1 11-4.5l-1.5-1a105.867 105.867 0 0 1-15.5 4h-1a269.14 269.14 0 0 1-3-13 15.686 15.686 0 0 1 4-2c.886-.825 1.219-1.825 1-3 .722.417 1.222 1.084 1.5 2-.243-6.304-1.743-12.304-4.5-18a809.113 809.113 0 0 0-43 12c-1.291-.237-2.291.096-3 1-.342.838-1.008 1.172-2 1-.667-1.333-1.333-1.333-2 0-.171 2.988 1.162 4.988 4 6a9.26 9.26 0 0 0-2 2.5 245.77 245.77 0 0 0 3 10.5c3.856-1.434 4.689-.434 2.5 3-.998-2.528-1.831-2.528-2.5 0a924.528 924.528 0 0 1 7.5 29c.667 1.333 1.333 1.333 2 0 1.44 1.43 1.774 3.097 1 5-.718-.95-1.551-1.117-2.5-.5a29.898 29.898 0 0 0 2.5 6.5 4.457 4.457 0 0 1 1.5-2c1.871 1.267 3.704 1.267 5.5 0 .344 4.485-1.823 6.485-6.5 6a83.575 83.575 0 0 1 3 12.5c-1.005 1.109-1.672 2.609-2 4.5 1.175-.219 2.175.114 3 1a26.585 26.585 0 0 1-3.5 2c-.198-1.882-.698-3.548-1.5-5h-1c-.722 1.051-1.722 1.718-3 2-.667-1.333-1.333-1.333-2 0h-1c-1.291-.237-2.291.096-3 1-1.599-.268-2.932.066-4 1-1.599-.268-2.932.066-4 1-1.599-.268-2.932.066-4 1-1.599-.268-2.932.066-4 1-1.599-.268-2.932.066-4 1h-3c-.667 0-1 .333-1 1h-3c-.667 0-1 .333-1 1-1.291-.237-2.291.096-3 1-1.599-.268-2.932.066-4 1-1.599-.268-2.932.066-4 1-1.599-.268-2.932.066-4 1 0 .667-.333 1-1 1-.667-1.333-1.333-1.333-2 0-1.599-.268-2.932.066-4 1 1.282 1.68 2.949 3.013 5 4 .304.65.637 1.317 1 2-.757 1.273-1.423 1.273-2 0-2.541-3.074-5.874-4.408-10-4-.333-1.333-.667-1.333-1 0h-3c2.559-1.07 4.892-2.57 7-4.5-1.215-2.096-2.049-1.929-2.5.5-1.726-1.076-3.56-1.243-5.5-.5-1.95 2.441-3.617 4.941-5 7.5 0-.667-.333-1-1-1-.992-.172-1.658.162-2 1-1.333.333-1.333.667 0 1-1.132.854-2.465.854-4 0 .734-1.208 1.067-2.541 1-4 2.307-.486 4.473-.486 6.5 0a29.822 29.822 0 0 0-.5-5 989.681 989.681 0 0 0 60-15.5 3.647 3.647 0 0 1-1-1.5c1.48-.613 2.813-.946 4-1-1.35-1.45-3.016-2.117-5-2-.308-3.213.859-4.213 3.5-3 2.826-1.417 2.993-2.917.5-4.5a162.154 162.154 0 0 0-2.5-8.5 4.457 4.457 0 0 0-1.5 2c1.206 2.016 1.206 4.016 0 6-2.706-3.451-4.04-7.451-4-12 5.467.12 6.467-1.88 3-6-1.658 3.543-3.325 3.71-5 .5 2.89-1.892 2.556-2.725-1-2.5a21.332 21.332 0 0 0-1-7l1-2a6.845 6.845 0 0 0 4 1c-.271-2.321.395-4.321 2-6-3.561-1.783-5.228-4.783-5-9a4.932 4.932 0 0 0-3 .5 673.63 673.63 0 0 1 3 5c-.598 1.301-1.598 2.135-3 2.5a30.428 30.428 0 0 1-3-12h4c.262-1.478-.071-2.811-1-4a9.106 9.106 0 0 1-5 1c.213-1.644-.12-3.144-1-4.5l2-1c-2.667-1.667-2.667-3.333 0-5a4.932 4.932 0 0 0-3-.5v-4c1.643-.02 2.976.647 4 2 1.006-.438 1.006-1.104 0-2a18.398 18.398 0 0 1 7-2c.716-3.46 2.883-5.46 6.5-6a18.982 18.982 0 0 1 2.5-7 9.107 9.107 0 0 0 5 1 21.652 21.652 0 0 1 3 4 485.12 485.12 0 0 1 21-5.5c1.109-5.99 4.609-8.156 10.5-6.5.483.948.649 1.948.5 3a241.105 241.105 0 0 0 15-3c.95 6.08 2.283 12.08 4 18 3.871-1.643 6.038-.31 6.5 4 1.699-.906 3.533-1.24 5.5-1 .638 1.96.638 3.793 0 5.5a57.13 57.13 0 0 0-10 3.5c.387 1.22 1.22 1.886 2.5 2a38.906 38.906 0 0 1 9.5-2c.463 2.982.796 5.982 1 9h-5c.198 2.075.365 4.075.5 6a24.356 24.356 0 0 0-5.5 2.5c1.367 2.302 2.034 4.802 2 7.5a9.107 9.107 0 0 0 5-1 20.85 20.85 0 0 1 3 6.5l-6 3a828.807 828.807 0 0 1 5.5 19.5 58.93 58.93 0 0 1 15.5-4c-.552-1.83-.552-3.497 0-5a35.171 35.171 0 0 1 8-2c-.278 1.846.389 3.18 2 4 .552-1.503.552-3.17 0-5a128.865 128.865 0 0 1 11-2c-.188 1.603.312 2.937 1.5 4 2.301-1.367 4.801-2.034 7.5-2-.551-4.206 1.283-6.54 5.5-7 1.188 1.063 1.688 2.397 1.5 4a63.152 63.152 0 0 0 17-4c2.059 2.538 3.059 5.538 3 9 4.307-.827 8.64-1.493 13-2a9.86 9.86 0 0 1-1 6 30.616 30.616 0 0 0-10 4 29.825 29.825 0 0 0 2 5c1.698-1.181 3.365-1.181 5 0l2 5a79 79 0 0 1-9 4.5c1.438.219 2.771.719 4 1.5a37.143 37.143 0 0 1 2.5 8c3-2.314 5.667-4.981 8-8 1.951.388 3.451 1.388 4.5 3l-7 3.5c1.076 1.726 1.243 3.559.5 5.5-.718-.951-1.551-1.117-2.5-.5 1.921 1.241 2.254 2.741 1 4.5-1.109-1.09-2.109-1.09-3 0l2 6 1.5 1 3-2c.128 1.714.962 3.381 2.5 5l-2 1c-2.631-1.053-5.298-1.553-8-1.5 1.134 1.016.801 1.683-1 2 2.697 2.81 2.197 3.643-1.5 2.5.077-1.238-.089-2.238-.5-3-1.022.355-1.689 1.022-2 2Zm-160-63c2.015-1.353 3.682-.853 5 1.5a9.471 9.471 0 0 0-2.5 1.5c-.236-1.62-1.069-2.62-2.5-3Zm152 25a60.175 60.175 0 0 0-2.5-13c-.388-.928-1.055-1.595-2-2a5092.565 5092.565 0 0 1-68 18c-2.02-.532-2.853-1.865-2.5-4-1.56.019-3.06.352-4.5 1-1.011-.556-1.844-1.222-2.5-2 .8-2.241 2.466-3.241 5-3l-2-13a27.007 27.007 0 0 0-10 2c-.798-.457-1.131-1.124-1-2a21.84 21.84 0 0 0 5-4.5c-.225-1.62-1.058-2.787-2.5-3.5-1.44.648-2.94.98-4.5 1v-3l9-2c.239-1.967-.094-3.8-1-5.5a51.02 51.02 0 0 0-10 1.5c-.067-1.459.266-2.792 1-4l8-1a51.56 51.56 0 0 1-1-7 6.846 6.846 0 0 0-4 1c-.798-.457-1.131-1.124-1-2a105.867 105.867 0 0 0 15.5-4l1.5 1a73.472 73.472 0 0 0-11 4.5 1650.24 1650.24 0 0 0 12.5 47.5c23.122-6.406 46.289-12.74 69.5-19a143.868 143.868 0 0 1 5 16c-.457.798-1.124 1.131-2 1Zm-89-56c.709-.904 1.709-1.237 3-1-.194 3.505-1.194 3.838-3 1Zm-67-5c-.017 1.528-.684 2.028-2 1.5.544-.717 1.21-1.217 2-1.5Zm0 0v-3c11.94-.376 11.94.624 0 3Zm66-4c-.67-4.35-1.504-8.684-2.5-13a4.94 4.94 0 0 0-2.5-1 611.875 611.875 0 0 1-41 10 809.113 809.113 0 0 1 43-12c2.757 5.696 4.257 11.696 4.5 18-.278-.916-.778-1.583-1.5-2Zm-51 48c1.879-.107 2.212.393 1 1.5-3.375.632-3.709.132-1-1.5Zm6 23c1.256-.039 2.256.461 3 1.5-2.034 1.205-4.034 1.372-6 .5a44.093 44.093 0 0 0 3-2Zm138 0c1.354 2.587.354 3.921-3 4-1.41-.368-2.41-1.201-3-2.5a10.098 10.098 0 0 1 6-1.5Zm0 9c1.624-.14 2.79.527 3.5 2l1.5 6c-.043.916-.376 1.583-1 2-.226-3.897-1.559-7.23-4-10Z" style="opacity:1"/><path fill="#d36f78" d="M158.5 91.5a19.588 19.588 0 0 1-2-3.5c4.054-1.941 3.72-2.775-1-2.5.262-1.478-.071-2.811-1-4a9.107 9.107 0 0 1-5 1v-5c2.053.098 3.72-.569 5-2a51.02 51.02 0 0 1 10-1.5c.906 1.7 1.239 3.533 1 5.5l-9 2v3c1.56-.02 3.06-.352 4.5-1 1.442.713 2.275 1.88 2.5 3.5a21.84 21.84 0 0 1-5 4.5Z" style="opacity:1"/><path fill="#523a45" d="M119.5 76.5c3.551.686 3.717 1.686.5 3a4.934 4.934 0 0 0-.5 3h-3c.115-2.447 1.115-4.447 3-6Z" style="opacity:1"/><path fill="#293340" d="M115.5 69.5c.876-.13 1.543.203 2 1a37.151 37.151 0 0 0 2 4.5 4.451 4.451 0 0 1-2 1.5c-1.444-2.108-2.11-4.441-2-7Z" style="opacity:1"/><path fill="#d88993" d="M156.5 62.5h1c-.131.876.202 1.543 1 2a6.846 6.846 0 0 1 4-1 51.56 51.56 0 0 0 1 7l-8 1c.891-.761 1.558-1.761 2-3a19.051 19.051 0 0 1-1-6Z" style="opacity:.782"/><path fill="#ca5861" d="M248.5 109.5c-3.088.927-6.088 2.26-9 4a61.14 61.14 0 0 1 3 11.5c.336 1.03 1.003 1.53 2 1.5.333 1.333.667 1.333 1 0h4c-.73 1.545-2.063 2.378-4 2.5 1.211.893 1.211 1.726 0 2.5-.886-.825-1.219-1.825-1-3-1.322.17-2.489-.163-3.5-1a10.756 10.756 0 0 1-2.5 3l1 2c-3.499 3.316-4.666 2.649-3.5-2 1.976-1.043 2.476-2.377 1.5-4-2.739 1.917-4.239 4.584-4.5 8-1.516-2.551-2.349-2.218-2.5 1-4.076-.894-4.743-2.894-2-6l-1-1a22.209 22.209 0 0 0-3.5 6c-2.264-3.02-5.097-3.687-8.5-2-.886-.825-1.219-1.825-1-3 6.647-.295 8.313-3.295 5-9a21.028 21.028 0 0 1-7 2c-.545-3.672-.878-3.338-1 1-1.322-.17-2.489.163-3.5 1-.311-1.242.189-2.242 1.5-3l-4-1c-.596 1.216-.763 2.549-.5 4-1.164.335-2.497.335-4 0l-5 4a9.454 9.454 0 0 0-1.5-2.5c1.896-1.065 2.063-1.898.5-2.5-2.8 1.548-2.967 3.214-.5 5l-1 1c-1.435-1.324-2.435-2.99-3-5a35.925 35.925 0 0 1-9.5 3 18.513 18.513 0 0 0-4.5-4 78.995 78.995 0 0 1-12 3v-4c1.478.262 2.811-.071 4-1a19.887 19.887 0 0 1-3.5-4 8.43 8.43 0 0 0-.5 4h-4v-5a51.569 51.569 0 0 1 7-1l-1-8c.656.778 1.489 1.444 2.5 2 1.44-.648 2.94-.981 4.5-1-.353 2.135.48 3.468 2.5 4a5092.565 5092.565 0 0 0 68-18c.945.405 1.612 1.072 2 2a60.175 60.175 0 0 1 2.5 13Z" style="opacity:1"/><path fill="#0e333b" d="M128.5 115.5v-3h3v3h-3Z" style="opacity:1"/><path fill="#23363d" d="M128.5 115.5a2.428 2.428 0 0 1-.5 2c-1.011-.837-2.178-1.17-3.5-1a12.93 12.93 0 0 1 .5-5c.498 2.044 1.665 3.378 3.5 4Z" style="opacity:1"/><path fill="#3c5a6c" d="M268.5 114.5c1.846-.278 3.18.389 4 2-2.333 1.441-3.666.775-4-2Z" style="opacity:.973"/><path fill="#112437" d="M131.5 120.5c1.621.287 2.621 1.287 3 3a82.45 82.45 0 0 1-6.5 3c-1.076-3.406.09-5.406 3.5-6Z" style="opacity:1"/><path fill="#352e36" d="M105.5 129.5c1.788-.285 3.455.048 5 1a18.986 18.986 0 0 1-7 2.5 6.978 6.978 0 0 0-2.5 3.5c-.9-1.27-2.066-2.27-3.5-3 1.15-1.231 2.317-1.231 3.5 0 .907-2.109 2.407-3.442 4.5-4Z" style="opacity:1"/><path fill="#713941" d="M89.5 133.5c1.145 1.293.811 2.459-1 3.5.808 1.706 2.141 2.539 4 2.5v3c-1.322.17-2.489-.163-3.5-1a65.91 65.91 0 0 1-6 3c-.383-1.537-1.216-2.87-2.5-4 1.402-1.342 1.069-2.176-1-2.5 2.62-3.095 5.12-2.929 7.5.5.335-2.003 1.168-3.67 2.5-5Z" style="opacity:1"/><path fill="#9f3949" d="M53.5 141.5h1c4.126-.408 7.459.926 10 4-.722 1.051-1.722 1.718-3 2-1.822-2.357-4.155-2.691-7-1a305.498 305.498 0 0 1-.5 8 80.721 80.721 0 0 1-3.5-12c1.291.237 2.291-.096 3-1Z" style="opacity:1"/><path fill="#103044" d="M252.5 142.5a2.428 2.428 0 0 0 .5 2c.853-1.625 1.853-1.958 3-1-.331 1.519-.164 2.852.5 4 .219 1.175-.114 2.175-1 3a54.86 54.86 0 0 1-7 2 56.584 56.584 0 0 0-4 1h-1c-1.806.706-3.639.373-5.5-1-1.864 1.464-4.031 2.464-6.5 3a8.192 8.192 0 0 0-2.5 4c-.601-1.859-1.434-2.192-2.5-1-1.589 2.592-3.255 2.592-5 0a71.254 71.254 0 0 1-2 4h-1c-1.75-.733-3.417-1.066-5-1h-1c-.992-.172-1.658.162-2 1v1c-.311.978-.978 1.645-2 2-1.211-.774-1.211-1.607 0-2.5-.937-.692-1.603-.525-2 .5-1.333.333-1.333.667 0 1v1h-3c-.342-.838-1.008-1.172-2-1h-6c.343 1.983-.324 3.317-2 4 .131-.876-.202-1.543-1-2-.963.47-.963 1.137 0 2v3c-.709.904-1.709 1.237-3 1v3c-1.624.14-2.79-.527-3.5-2-.399.228-.565.562-.5 1-1.267-.587-2.267-.587-3 0a15.418 15.418 0 0 1 1 7c1.478-.262 2.811.071 4 1-1.141.925-1.141 1.759 0 2.5a34.033 34.033 0 0 1-8 1.5 132.723 132.723 0 0 1-2.5-16c1.507-1.005 2.673-2.338 3.5-4 1.024 1.353 2.357 2.02 4 2-.203-2.138-1.203-3.805-3-5a20.035 20.035 0 0 0 3-6 7.293 7.293 0 0 0 3 2 429.064 429.064 0 0 1 28-7c-.536-3.365.797-5.365 4-6a15.784 15.784 0 0 0 5 3c9.352-2.341 18.685-4.674 28-7Zm-59 26h-1c-.963-.863-.963-1.53 0-2 .798.457 1.131 1.124 1 2Z" style="opacity:1"/><path fill="#6b383e" d="M64.5 148.5c-1.291.237-2.291-.096-3-1 1.278-.282 2.278-.949 3-2 .577 1.273 1.243 1.273 2 0a44.043 44.043 0 0 1-1-2c.087-.998.42-2.165 1-3.5 1.135-.749 2.135-.583 3 .5-2.336 1.094-2.336 2.427 0 4 .996-4.329 3.662-6.996 8-8 1.094 1.368.76 2.535-1 3.5l1 1c-1.8.317-2.134.984-1 2l-3 1c1.625.853 1.958 1.853 1 3-3.556.96-6.89 1.46-10 1.5Z" style="opacity:1"/><path fill="#365167" d="M243.5 153.5c.333 2.667.667 2.667 1 0a56.584 56.584 0 0 1 4-1v2c-.736 1.297-2.236 2.63-4.5 4-2.137 1.625-3.803 1.292-5-1-.284 2.386-1.284 3.052-3 2-.853 1.625-1.853 1.958-3 1-1.791 2.013-3.125 2.013-4 0-2.913.379-5.747 1.713-8.5 4-.798-.457-1.131-1.124-1-2a71.254 71.254 0 0 0 2-4c1.745 2.592 3.411 2.592 5 0 1.066-1.192 1.899-.859 2.5 1a8.192 8.192 0 0 1 2.5-4c2.469-.536 4.636-1.536 6.5-3 1.861 1.373 3.694 1.706 5.5 1Z" style="opacity:1"/><path fill="#486978" d="M248.5 154.5h3v3h-3v-3Z" style="opacity:.263"/><path fill="#293135" d="M69.5 164.5c4.637.108 4.97 1.108 1 3-.886-.825-1.219-1.825-1-3Z" style="opacity:1"/><path fill="#536b7b" d="M210.5 162.5c.342-.838 1.008-1.172 2-1 .333 1.333.667 1.333 1 0 1.583-.066 3.25.267 5 1v3c-5.168.849-9.835 2.182-14 4-1.673-1.586-3.673-2.253-6-2v3l-6 1v-3h1c1.676-.683 2.343-2.017 2-4h6c.342.838 1.008 1.172 2 1h2c.333 1.333.667 1.333 1 0v-2c.397-1.025 1.063-1.192 2-.5-1.211.893-1.211 1.726 0 2.5 1.022-.355 1.689-1.022 2-2 1.333-.333 1.333-.667 0-1Z" style="opacity:.776"/><path fill="#0f2f42" d="M50.5 141.5v1a80.721 80.721 0 0 0 3.5 12c.212-2.832.379-5.498.5-8 2.845-1.691 5.178-1.357 7 1 .709.904 1.709 1.237 3 1-1.195 3.21-3.195 3.876-6 2 .02 1.56.352 3.06 1 4.5l-3 4.5c-1.714-1.109-2.38-.442-2 2l12-2 3 14a10.777 10.777 0 0 0 6-2c-.809-4.941-.142-5.108 2-.5 1.988.18 3.988.014 6-.5a41.742 41.742 0 0 1 1 9h-3c.17 1.322-.163 2.489-1 3.5a177.535 177.535 0 0 1-18 4.5c.262-1.478-.071-2.811-1-4l-1 .5c.612 2.147 1.28 4.314 2 6.5a55.466 55.466 0 0 1 11-3c.763.768 1.763 1.268 3 1.5l-2 1c1.912 1.2 3.245 2.867 4 5a907.42 907.42 0 0 0-21 3.5c.21.586.543 1.086 1 1.5-1.882.198-3.548.698-5 1.5v1c-1.774-.87-3.107-2.203-4-4-.15-1.559-.483-3.226-1-5a42.813 42.813 0 0 1 8-3c-.124-.607-.457-.94-1-1l-1-2c.838-.342 1.172-1.008 1-2-1.014-1.174-2.347-1.84-4-2v-2h2c-1.333-1.333-1.333-2.667 0-4v-1c.992.172 1.658-.162 2-1 2.758-1.467 2.425-2.133-1-2-1.25.077-2.083.744-2.5 2-1.356-.88-2.856-1.214-4.5-1-.513-2.949-.513-5.782 0-8.5-2.667-.667-2.667-1.333 0-2-.95-.718-1.117-1.551-.5-2.5 1.183 1.231 2.35 1.231 3.5 0-.825-.886-1.825-1.219-3-1 0-1.333-.667-2-2-2h-5c-.12-1.086-.787-1.753-2-2-1.635.546-3.301.88-5 1a28.793 28.793 0 0 1-2-10c2.358.247 4.358-.419 6-2 1.535.854 2.868.854 4 0v-1c.342-.838 1.008-1.172 2-1 .667 0 1 .333 1 1 1.383-2.559 3.05-5.059 5-7.5 1.94-.743 3.774-.576 5.5.5.451-2.429 1.285-2.596 2.5-.5-2.108 1.93-4.441 3.43-7 4.5Zm4 32c3.425-.133 3.758.533 1 2-2.198.091-2.531-.575-1-2Z" style="opacity:1"/><path fill="#304f63" d="M40.5 158.5h5c1.333 0 2 .667 2 2 1.175-.219 2.175.114 3 1-1.15 1.231-2.317 1.231-3.5 0-.617.949-.45 1.782.5 2.5-2.667.667-2.667 1.333 0 2-.513 2.718-.513 5.551 0 8.5 1.644-.214 3.144.12 4.5 1 .417-1.256 1.25-1.923 2.5-2-1.531 1.425-1.198 2.091 1 2-.342.838-1.008 1.172-2 1-1.333.333-1.333.667 0 1-1.333 1.333-1.333 2.667 0 4h-2c-.405-1.05-1.071-1.05-2 0-.689-1.838-1.022-3.505-1-5-2.953 1.092-5.953 1.592-9 1.5a43.716 43.716 0 0 0-3-7.5c.247-1.213.914-1.88 2-2-.709-.904-1.709-1.237-3-1 .17-1.322-.163-2.489-1-3.5 1.979-.684 3.646-.184 5 1.5a18.95 18.95 0 0 1 3-5 31.12 31.12 0 0 1-2-2Zm3 7c1.238 1.714 1.905 3.714 2 6-1.291.237-2.291-.096-3-1-2.256 1.597-3.59.931-4-2 1.347-.671 2.514-.671 3.5 0 1.039-.744 1.539-1.744 1.5-3Z" style="opacity:.997"/><path fill="#1c3e51" d="M185.5 174.5c-.111.617-.444 1.117-1 1.5 2.406 3.184 5.406 4.017 9 2.5a19.507 19.507 0 0 1 3 7c1.545.952 3.212 1.285 5 1a9.108 9.108 0 0 0-1-5c4.225-3.29 6.559-2.29 7 3 4.519-2.275 7.186-.942 8 4a10.776 10.776 0 0 1-6 2 51.569 51.569 0 0 1 1 7 28.287 28.287 0 0 0-10 3 54.293 54.293 0 0 1 2 9 41.541 41.541 0 0 1 8-1 70.523 70.523 0 0 0 1.5 9c1.956.284 4.123.284 6.5 0 1.831 5.157-.169 7.49-6 7 .188-1.603-.312-2.937-1.5-4-2.333 1.333-4.667 1.333-7 0-1.802 2.178-3.969 4.011-6.5 5.5a2.428 2.428 0 0 0 2 .5c-1.535 1.288-3.201 1.288-5 0 .363-.683.696-1.35 1-2 1.333-.333 1.333-.667 0-1-.333-1.333-.667-1.333-1 0-.978-.311-1.645-.978-2-2l4-1a6.802 6.802 0 0 0-3-1.5c.556-.383.889-.883 1-1.5 1.604-.787 2.271-2.12 2-4 1.333-1 1.333-2 0-3-.573-5.955-1.907-11.622-4-17-.667 0-1-.333-1-1v-2c1.333-.333 1.333-.667 0-1v-1c.237-1.291-.096-2.291-1-3-.992-.172-1.658.162-2 1 0 .667-.333 1-1 1-1-1.333-2-1.333-3 0-1.599-.268-2.932.066-4 1-.577 1.273-1.243 1.273-2 0 .363-.683.696-1.35 1-2a34.033 34.033 0 0 0 8-1.5c-1.141-.741-1.141-1.575 0-2.5-1.189-.929-2.522-1.262-4-1a15.418 15.418 0 0 0-1-7c.733-.587 1.733-.587 3 0Zm21 11c1.44 1.92 1.107 3.587-1 5-1.611-.82-2.278-2.154-2-4 1.291.237 2.291-.096 3-1Z" style="opacity:1"/><path fill="#324f62" d="M51.5 183.5c1.653.16 2.986.826 4 2-.838.342-1.172 1.008-1 2-3.803.395-3.97 1.395-.5 3 .765-.07 1.265-.403 1.5-1 .543.06.876.393 1 1a42.813 42.813 0 0 0-8 3c.517 1.774.85 3.441 1 5-3.379 3.045-5.379 2.211-6-2.5a7.299 7.299 0 0 1 2-3.5c-1.667-1-3-2.333-4-4-.886.825-1.219 1.825-1 3h-4a20.093 20.093 0 0 0-1.5-6c-1.11 1.537-2.61 2.203-4.5 2 .42-2.41 1.754-4.243 4-5.5-.837-1.011-1.17-2.178-1-3.5 1.624-.14 2.79.527 3.5 2 1.011-.837 2.178-1.17 3.5-1v4a12.93 12.93 0 0 0-5 .5c1.56.318 2.728 1.151 3.5 2.5a99.355 99.355 0 0 1 10.5-3c1.238 3.811 1.904 3.811 2 0Z" style="opacity:1"/><path fill="#1f2f3f" d="M147.5 190.5c2.332.662 2.999 1.995 2 4-1.205-1.077-1.872-2.41-2-4Z" style="opacity:1"/><path fill="#2f4a5f" d="M73.5 187.5c1.992-.172 3.659.495 5 2 2.395-1.023 3.395-.023 3 3 3.279-.703 6.612-.37 10 1 1.333-.333 1.333-.667 0-1 2.773-1.303 6.106-2.303 10-3 .209 2.214-.624 3.881-2.5 5a73.153 73.153 0 0 1-6.5 2c-1.147-.318-1.98-.984-2.5-2a4.932 4.932 0 0 0-.5 3c-1.322.17-2.489-.163-3.5-1-.918 2.132-2.251 2.799-4 2a52.057 52.057 0 0 1-13 4 3.944 3.944 0 0 1-2-1c-1.636 2.05-3.802 3.05-6.5 3-.17-1.322.163-2.489 1-3.5-1.669-.122-3.335.212-5 1 1.473.71 2.14 1.876 2 3.5-2.785.584-4.452-.416-5-3 1.333-.333 1.333-.667 0-1 1.452-.802 3.118-1.302 5-1.5a3.646 3.646 0 0 1-1-1.5 907.42 907.42 0 0 1 21-3.5c-.755-2.133-2.088-3.8-4-5l2-1c-1.237-.232-2.237-.732-3-1.5Zm1 9 3 1.5c-1.657.725-2.657.225-3-1.5Z" style="opacity:1"/><path fill="#56393d" d="M149.5 199.5h3c-.162 2.324-1.328 3.991-3.5 5-1-2.667-2-2.667-3 0l-.5-1.5c1.174-1.511 2.507-2.678 4-3.5Z" style="opacity:1"/><path fill="#496077" d="M218.5 249.5c-.31-1.644-1.31-2.644-3-3v-3c-.667-1.333-1.333-1.333-2 0-.667 0-1-.333-1-1 .444-1.613 1.444-2.78 3-3.5-2.06-1.493-2.393-3.326-1-5.5 1.471.881 2.304 2.214 2.5 4 2.272-.74 4.272-.74 6 0 2.172 1.009 3.338 2.676 3.5 5a28.741 28.741 0 0 1-7-2c-1.873-.018-2.206.482-1 1.5l-2 2c4.109.627 6.776 2.793 8 6.5-1.624.14-2.79-.527-3.5-2-.671.752-1.504 1.086-2.5 1Z" style="opacity:.847"/><path fill="#1a354a" d="M204.5 248.5c1.333-.333 1.333-.667 0-1v-5c1.333-.333 1.333-.667 0-1v-1c-.667 0-1-.333-1-1-.904-.709-1.237-1.709-1-3 1.333-.333 1.333-.667 0-1-.667 0-1-.333-1-1v-3c-3.764.409-7.43.409-11 0 .227-4.371-.44-8.705-2-13 1.89.203 3.39-.463 4.5-2 .383.556.883.889 1.5 1-.111.617-.444 1.117-1 1.5a6.802 6.802 0 0 1 3 1.5l-4 1c.355 1.022 1.022 1.689 2 2h1v1c-.304.65-.637 1.317-1 2 1.799 1.288 3.465 1.288 5 0a31.723 31.723 0 0 0 6.5-2c1.044 1.123 1.71 2.456 2 4 .826-1.905 1.993-2.239 3.5-1 1.45 1.35 2.117 3.016 2 5-1.644.214-3.144-.12-4.5-1l-.5 1c1.189.929 2.522 1.262 4 1-.126 1.7-.793 3.2-2 4.5.399 1.728 1.066 3.228 2 4.5 0 .667.333 1 1 1h2v3c-2.776-.411-3.443.422-2 2.5-1.691 2.571-2.691 5.404-3 8.5a83.188 83.188 0 0 1-12 3.5c2.769 3.3 2.102 4.467-2 3.5-1.196.346-1.196.846 0 1.5a4.934 4.934 0 0 1-3 .5c-.558-1.29-1.558-2.123-3-2.5l1-1a16.242 16.242 0 0 0-8 0 9.454 9.454 0 0 0-1.5 2.5l-1-1c-1.491 1.504-3.324 2.337-5.5 2.5-1.894 1.079-2.227 2.413-1 4-1.498.585-2.498.085-3-1.5-.342-.838-1.008-1.172-2-1h-3c.215 1.679-.452 2.679-2 3 .065-.438-.101-.772-.5-1a11.333 11.333 0 0 1-3.5 1.5c2.059 1.185 2.226 2.352.5 3.5a22.725 22.725 0 0 1-7-3c-2.659 1.468-5.326 1.801-8 1l-2 2c-2.172-1.009-3.338-2.676-3.5-5 1.624-.14 2.79.527 3.5 2a8.192 8.192 0 0 1 2.5-4c-1.211-1.22-1.211-2.387 0-3.5-2.502-1.496-4.169-3.663-5-6.5-.406 1.057-.406 2.391 0 4-2.442.146-3.109-.687-2-2.5-2.474-3.707-3.808-7.874-4-12.5 3.329.236 6.329-.597 9-2.5-3.34-.164-5.84-1.664-7.5-4.5a4.934 4.934 0 0 0-.5 3h-3a51.569 51.569 0 0 1-1-7 66.227 66.227 0 0 0 11-2.5 15.645 15.645 0 0 1-4-2.5c-2.31 1.912-4.977 2.912-8 3 .566-3.735-.1-7.402-2-11a84.822 84.822 0 0 0 12-4 100.262 100.262 0 0 0-5.5-2 4.934 4.934 0 0 0-.5 3 51.569 51.569 0 0 0-7 1 6.846 6.846 0 0 0-1-4c6.459-1.47 6.126-2.137-1-2-.285-1.788.048-3.455 1-5 .896 1.006 1.562 1.006 2 0-2.295-.636-3.961-1.969-5-4a127.536 127.536 0 0 0 11-5 13.015 13.015 0 0 1-4.5-4 4.934 4.934 0 0 0-.5 3c-1.984-.117-3.65.55-5 2-1.717-1.168-2.384-2.835-2-5 1.644.214 3.144-.12 4.5-1 .33-3.366-.003-6.699-1-10-1.751 1.309-3.251.975-4.5-1-1.006.438-1.006 1.104 0 2-.825.886-1.825 1.219-3 1 .654-4.652-.68-5.319-4-2 1.391 2.436.891 3.102-1.5 2a4.934 4.934 0 0 0-.5 3c-1.56.019-3.06.352-4.5 1-.945-.405-1.612-1.072-2-2-.368 1.41-1.201 2.41-2.5 3-1.359-1.124-2.359-2.458-3-4-3.894.697-7.227 1.697-10 3v1c-3.388-1.37-6.721-1.703-10-1 .395-3.023-.605-4.023-3-3-1.341-1.505-3.008-2.172-5-2a236.853 236.853 0 0 1 15-4.5 10.756 10.756 0 0 0 3-2.5c2.005 2.528 3.671 2.195 5-1l2 1 1-4c1.571 1.915 3.571 2.915 6 3 .133-3.396 1.133-3.729 3-1 .7-2.515 2.033-3.182 4-2 .929-4.925 2.596-5.258 5-1l2-4 2 3 2-4c.886.825 1.219 1.825 1 3h3c.098-5.873 1.098-6.206 3-1 .948-3.215 2.281-3.548 4-1 5.085-2.238 10.252-3.238 15.5-3 .667 1.667.667 3.333 0 5a4.934 4.934 0 0 1-.5-3h-3c.052 3.037-.948 5.704-3 8-1.776-1.947-3.776-2.28-6-1 1.266 4.634 2.433 9.3 3.5 14 .637 1.803 1.803 3.136 3.5 4l-2 2a44.36 44.36 0 0 1 2 10c3.635.156 3.968 1.322 1 3.5a9.454 9.454 0 0 1 1.5 2.5c.388-.928 1.055-1.595 2-2 2.715 1.238 5.382 1.238 8 0a20.532 20.532 0 0 1 2.5 4.5 4.934 4.934 0 0 0 3 .5v3c-1.322.17-2.489-.163-3.5-1l-3 4c-.893-1.211-1.726-1.211-2.5 0 1.353 1.024 2.02 2.357 2 4h6c-1.474 2.827-1.14 5.327 1 7.5l-2 1c1.32 2.215.653 3.715-2 4.5a33.467 33.467 0 0 1-4 9.5 7.248 7.248 0 0 1 2 2.5c-1.315 1.395-.981 2.395 1 3 1.333-1.333 2.667-1.333 4 0l2-2 1 1a28.931 28.931 0 0 0-1.5 4 3.647 3.647 0 0 0-1.5-1 14.748 14.748 0 0 1-3 4.5c2.707.328 5.374-.005 8-1 1.473-.71 2.14-1.876 2-3.5-1.175.219-2.175-.114-3-1 .865-1.083 1.865-1.249 3-.5 2.66 4.038 5.994 4.538 10 1.5l-3-2 2-1a13.049 13.049 0 0 1 4 3 106.487 106.487 0 0 1 17-4.5c1.456-.423 1.956-1.256 1.5-2.5a35.193 35.193 0 0 0-4.5-1c2.027-1.839 4.36-2.339 7-1.5a3.647 3.647 0 0 0-1 1.5c1.034 2.625 2.034 2.625 3 0Zm-94-61c-1.528.017-2.028.684-1.5 2 .717-.544 1.217-1.211 1.5-2Z" style="opacity:1"/><path fill="#3c556a" d="M218.5 249.5v3h3v3c-1.643.02-2.976-.647-4-2-1.167 1.579-2.5 2.912-4 4-.912-1.238-1.079-2.572-.5-4 1.257-2.246 3.09-3.579 5.5-4Z" style="opacity:.718"/><path fill="#567080" d="M213.5 257.5c1.476 1.73 1.142 3.063-1 4-2.694-1.963-2.361-3.297 1-4Z" style="opacity:.731"/><path fill="#425d72" d="M193.5 266.5c-2.433 1.55-4.933 1.884-7.5 1-2.213 2.081-4.88 3.415-8 4-1.892-2.89-2.725-2.556-2.5 1a9.108 9.108 0 0 0-5 1l-2-2c-.679 3.615-2.012 3.615-4 0 1.548-.321 2.215-1.321 2-3h3c.342.838 1.008 1.172 2 1 .502 1.585 1.502 2.085 3 1.5-1.227-1.587-.894-2.921 1-4 2.176-.163 4.009-.996 5.5-2.5l1 1a9.454 9.454 0 0 1 1.5-2.5 16.242 16.242 0 0 1 8 0l-1 1c1.442.377 2.442 1.21 3 2.5Z" style="opacity:.757"/></svg>
